# xmcd CD database file
#
# Track frame offsets:
#	150
#	4945
#	8393
#	23354
#	33679
#	53124
#	60238
#	81682
#	96253
#	116234
#	131963
#	153904
#
# Disc length: 2395 seconds
#
# Revision: 2
# Processed by: cddbd v1.5.2PL0 Copyright (c) Steve Scherf et al.
# Submitted via: CDex 1.70beta2
#
DISCID=9209590c
DTITLE=雑音工房NOISE - BROKEN THUNDER
DYEAR=1900
DGENRE=Game
TTITLE0=JUDGEMENT.
TTITLE1=RISING THUNDER？
TTITLE2=FIRE LEO-05P SYRINX.
TTITLE3=ARC ANGEL.
TTITLE4=FULL METAL GODDES.
TTITLE5=ATTACK POINT.
TTITLE6=STEEL OF DESTINY.-Long Version-
TTITLE7=BROKEN THUNDER.
TTITLE8=MOON OF MIND.-COSMO BABYLON MIX.-
TTITLE9=MOON OF BLACK RAIN.
TTITLE10=THE JUSTICE RAY Part 3
TTITLE11=CIEL ～”JETEVEUX”～
EXTD=
EXTT0=
EXTT1=
EXTT2=
EXTT3=
EXTT4=
EXTT5=
EXTT6=
EXTT7=
EXTT8=
EXTT9=
EXTT10=
EXTT11=
PLAYORDER=
